<?xml version="1.0" encoding="UTF-8"?>
<svg version="1.1" xmlns="http://www.w3.org/2000/svg" width="905" height="1280">
<path d="M0 0 C7.04763805 3.29128274 11.01651525 11.18477633 14.921875 17.59765625 C16.26973695 19.80440016 17.66103613 21.98541074 19.1015625 24.1328125 C24.8541065 32.82081105 29.13811937 42.37755257 28 53 C26.23748429 58.59241472 24.22348202 62.99927629 19 66 C13.94645056 68.16810973 8.91564277 69.90096353 3.5 70.875 C-10.15508764 73.6452422 -18.93977115 83.62384845 -26.70703125 94.359375 C-27.23683594 95.08640625 -27.76664063 95.8134375 -28.3125 96.5625 C-28.78300781 97.22378906 -29.25351562 97.88507813 -29.73828125 98.56640625 C-30.15464844 99.03949219 -30.57101562 99.51257813 -31 100 C-31.66 100 -32.32 100 -33 100 C-33.1546875 100.89138672 -33.1546875 100.89138672 -33.3125 101.80078125 C-34.54834616 105.75408459 -37.53983552 107.90585949 -41 110 C-46.3694905 111.60991656 -50.83698298 111.25054588 -56 109 C-56.1546875 110.3303125 -56.1546875 110.3303125 -56.3125 111.6875 C-57.41956377 117.02153455 -59.85981882 120.56211523 -64.12109375 124.01171875 C-67.18151851 125.621464 -70.31577366 125.52350114 -73.71875 125.6875 C-76.24948555 125.83841801 -76.24948555 125.83841801 -78.625 128.0625 C-79.07875 128.701875 -79.5325 129.34125 -80 130 C-78.53367935 134.56188645 -74.95696143 135.89523328 -71 138 C-69.51185608 138.85964335 -68.03248173 139.73465583 -66.5625 140.625 C-65.88316406 141.02976562 -65.20382812 141.43453125 -64.50390625 141.8515625 C-64.00761719 142.23054687 -63.51132812 142.60953125 -63 143 C-63 143.66 -63 144.32 -63 145 C-61.88625 145.1546875 -61.88625 145.1546875 -60.75 145.3125 C-57.79636774 146.05090806 -56.347101 147.1223192 -54 149 C-53.01 149.33 -52.02 149.66 -51 150 C-50.75121094 149.31164062 -50.50242187 148.62328125 -50.24609375 147.9140625 C-48.79553077 144.52183685 -47.00008266 141.5141004 -45.0625 138.375 C-44.71509766 137.80265625 -44.36769531 137.2303125 -44.00976562 136.640625 C-40.31865169 130.6625497 -40.31865169 130.6625497 -38 129 C-35.31550099 128.71540883 -32.85210823 128.60611324 -30.16796875 128.62890625 C-28.55818199 128.61471716 -26.94840012 128.59996543 -25.33862305 128.5847168 C-24.0756691 128.58029068 -24.0756691 128.58029068 -22.78720093 128.57577515 C-10.84340451 128.51478519 1.04147912 128.41102079 12.8125 126.1875 C13.63790283 126.03418213 14.46330566 125.88086426 15.3137207 125.72290039 C20.1207072 124.70732568 24.36124627 123.07380008 28.80541992 120.99682617 C32.20721874 119.4516549 35.7159903 118.26586793 39.25 117.0625 C44.47503273 115.25363605 49.66194315 113.38935737 54.8125 111.375 C72.04542591 104.7076257 89.30398486 99.82509906 107.875 99.8125 C108.81730469 99.80025391 109.75960938 99.78800781 110.73046875 99.77539062 C124.98560563 99.74581565 138.70190275 104.12760641 150 113 C150 113.66 150 114.32 150 115 C150.639375 115.268125 151.27875 115.53625 151.9375 115.8125 C154 117 154 117 155 120 C156.32222671 120.68843209 157.65686601 121.35330586 159 122 C178.33846837 141.76348966 184.20397975 173.00548214 184.18579102 199.48828125 C184.08473006 208.08096799 183.18395056 216.49675016 182 225 C181.89816406 225.76280273 181.79632812 226.52560547 181.69140625 227.31152344 C178.29799871 252.37456121 170.63343056 276.34188311 162.58984375 300.2421875 C160.61350867 306.12850484 158.78659628 312.05366823 157 318 C156.49922745 319.62776717 155.9978771 321.25535664 155.49609375 322.8828125 C154.95546841 324.65096196 154.41510422 326.41919129 153.875 328.1875 C153.62097412 329.00742432 153.36694824 329.82734863 153.10522461 330.67211914 C151.5978204 335.6421151 150.40836282 340.58342744 149.47680664 345.69360352 C148.9785604 348.10370704 148.30663287 350.4051251 147.5625 352.75 C145.40138827 359.70877976 144.01060474 366.85396047 142.60742188 373.99902344 C139.90394338 387.74497088 135.58600626 400.77800791 131 414 C127.58761219 423.91348375 124.60288355 433.84240568 122 444 C119.39472409 454.1669304 116.48966687 464.10510586 113 474 C112.68289063 474.91652344 112.36578125 475.83304688 112.0390625 476.77734375 C109.92937344 482.48432314 107.04361899 487.39080165 103.68359375 492.45703125 C101.95115554 495.0074582 101.95115554 495.0074582 100.41015625 497.82421875 C99.94480469 498.54222656 99.47945312 499.26023437 99 500 C98.34 500 97.68 500 97 500 C96.34 501.65 95.68 503.3 95 505 C94.34 505 93.68 505 93 505 C92.77828125 505.51949219 92.5565625 506.03898437 92.328125 506.57421875 C90.48459914 509.94136451 88.14157465 512.81875605 85.75 515.8125 C85.25201904 516.43761475 84.75403809 517.06272949 84.2409668 517.70678711 C83.26139968 518.93304579 82.27993962 520.15779528 81.29638672 521.38085938 C80.25923289 522.6762274 79.238192 523.98449033 78.22265625 525.296875 C73.33354135 531.41842606 68.22410127 535.03063661 60.3125 535.9375 C45.66362425 536.54710013 35.01585603 532.44489804 23.6171875 523.55078125 C23.08351563 523.03902344 22.54984375 522.52726563 22 522 C22 521.34 22 520.68 22 520 C21.01 519.67 20.02 519.34 19 519 C17.09765625 516.671875 17.09765625 516.671875 15.0625 513.75 C13.05593669 510.88900414 11.06385994 508.0788034 8.86328125 505.36328125 C7.30677473 503.38909583 6.18444231 501.69259864 5.125 499.4375 C3.97583312 497.03100937 2.81514736 494.64258409 1.58984375 492.2734375 C-3.30514008 482.7839292 -7.10299848 473.00033897 -10.3828125 462.84765625 C-10.88120585 461.3556306 -11.45999211 459.89060726 -12.0625 458.4375 C-13.06608922 455.82816802 -13.72176894 453.19936659 -14.375 450.484375 C-16.64293296 441.46934148 -19.39975402 432.58229721 -22.265625 423.7421875 C-23 421 -23 421 -23 417 C-34.59955132 421.76410143 -40.20731508 430.75155337 -45 442 C-46.13224504 444.9665809 -47.0733886 447.96419579 -48 451 C-48.64534218 452.85433767 -49.29121662 454.70849015 -49.9375 456.5625 C-51.98743087 462.69664428 -53.53984808 468.90959497 -55.0703125 475.1875 C-60.31561261 496.69763828 -67.36315193 524.37145344 -87.27734375 537.09375 C-101.22432184 544.36775404 -116.34459694 547.65665917 -131.875 543.8125 C-139.65275576 541.31752714 -146.54963239 538.22899156 -152 532 C-152.845625 531.154375 -153.69125 530.30875 -154.5625 529.4375 C-155.366875 528.633125 -156.17125 527.82875 -157 527 C-157.62519531 526.4534375 -158.25039063 525.906875 -158.89453125 525.34375 C-161.69962986 522.22119125 -163.31982466 518.82728583 -165.125 515.0625 C-165.47175781 514.35931641 -165.81851563 513.65613281 -166.17578125 512.93164062 C-176.15657779 492.53028065 -178.14929972 468.84954586 -181.16113281 446.56323242 C-183.69580865 427.85812827 -187.7759728 409.62088012 -193.22949219 391.55566406 C-194.01061281 388.96479881 -194.77634595 386.36977503 -195.5390625 383.7734375 C-199.59352518 370.02921069 -204.09995026 356.47636044 -208.91235352 342.97924805 C-210.1869413 339.38363385 -211.39663364 335.79676782 -212.4375 332.125 C-213.84730785 327.21584768 -215.64974066 322.46833849 -217.4375 317.6875 C-219.82572671 311.29271687 -222.03708894 304.89935784 -223.9765625 298.3515625 C-224.97602333 295.07851902 -226.05533623 291.84363212 -227.15820312 288.60449219 C-230.48238058 278.8277447 -233.39529136 268.99162914 -236 259 C-236.21011719 258.20819336 -236.42023438 257.41638672 -236.63671875 256.60058594 C-246.22745608 220.11218982 -251.81746449 180.03794633 -232 146 C-230.9863872 144.00686451 -229.98166626 142.00906231 -229 140 C-228.34 140 -227.68 140 -227 140 C-226.78988281 139.31035156 -226.57976562 138.62070312 -226.36328125 137.91015625 C-224.57492736 134.09260998 -222.07359885 131.47017218 -219.1875 128.4375 C-218.66607422 127.87353516 -218.14464844 127.30957031 -217.60742188 126.72851562 C-214.60814909 123.52704468 -211.58484477 120.5588159 -208 118 C-207.34 118 -206.68 118 -206 118 C-206 117.34 -206 116.68 -206 116 C-203.525 115.505 -203.525 115.505 -201 115 C-201 114.34 -201 113.68 -201 113 C-199.12762629 112.03654556 -197.2519701 111.07946898 -195.375 110.125 C-194.33085937 109.59132813 -193.28671875 109.05765625 -192.2109375 108.5078125 C-172.12774454 99.07701872 -146.11316996 101.67177539 -125.6875 109 C-121.7895545 110.4383391 -117.95994719 112.01184554 -114.16015625 113.69140625 C-111.22324025 115.15935451 -111.22324025 115.15935451 -108.75 114.9375 C-106.47986423 113.72135584 -105.47483291 112.07817365 -104 110 C-103.34 110 -102.68 110 -102 110 C-101.8453125 109.0409375 -101.8453125 109.0409375 -101.6875 108.0625 C-101.3471875 107.0415625 -101.3471875 107.0415625 -101 106 C-100.01 105.67 -99.02 105.34 -98 105 C-98.00902344 103.80503906 -98.01804687 102.61007812 -98.02734375 101.37890625 C-97.85162965 86.0337455 -97.85162965 86.0337455 -91.88671875 79.62890625 C-91.26410156 79.09136719 -90.64148438 78.55382812 -90 78 C-89.36191406 77.43539062 -88.72382813 76.87078125 -88.06640625 76.2890625 C-85.57930757 74.73756427 -84.15100796 74.68451435 -81.25 74.8125 C-80.45078125 74.83957031 -79.6515625 74.86664063 -78.828125 74.89453125 C-78.22484375 74.92933594 -77.6215625 74.96414063 -77 75 C-77.433125 73.948125 -77.433125 73.948125 -77.875 72.875 C-80.18021178 66.98390324 -81.93247389 62.32010083 -81 56 C-78.87475907 51.34631039 -76.36962905 47.74640417 -72 45 C-69.94176334 44.25947041 -67.85398916 43.59829076 -65.75 43 C-51.70048572 39.19319653 -51.70048572 39.19319653 -41 30 C-40.01 30 -39.02 30 -38 30 C-37.5978125 28.8553125 -37.5978125 28.8553125 -37.1875 27.6875 C-36.04029271 25.09118877 -35.05353332 23.8749652 -33 22 C-32.67 21.34 -32.34 20.68 -32 20 C-31.34 20 -30.68 20 -30 20 C-29.7525 19.28457031 -29.505 18.56914062 -29.25 17.83203125 C-27.86136405 14.68590294 -26.15536054 12.36189037 -24 9.6875 C-23.29875 8.80449219 -22.5975 7.92148437 -21.875 7.01171875 C-20.946875 6.01591797 -20.946875 6.01591797 -20 5 C-19.34 5 -18.68 5 -18 5 C-18 4.34 -18 3.68 -18 3 C-12.4675141 -1.16732704 -6.63839988 -1.06472513 0 0 Z " fill="#FEFEFE" transform="translate(478,310)"/>
<path d="M0 0 C0.84240234 -0.01224609 1.68480469 -0.02449219 2.55273438 -0.03710938 C18.31021963 -0.0735008 31.61630805 5.86838687 42.8046875 16.90625 C53.99832469 29.20185147 58.47057756 44.19814063 61.0625 60.1875 C61.23523438 60.91976807 61.40796875 61.65203613 61.5859375 62.40649414 C62.20560179 66.02257813 62.24393688 69.59233576 62.265625 73.25 C62.27250336 74.03022522 62.27938171 74.81045044 62.28646851 75.61431885 C62.30365542 78.13875992 62.30993142 80.6630034 62.3125 83.1875 C62.31417175 84.04420288 62.31584351 84.90090576 62.31756592 85.78356934 C62.31909386 98.81206643 61.65323594 111.38776894 59.0625 124.1875 C58.92593994 124.94885254 58.78937988 125.71020508 58.64868164 126.49462891 C57.35354354 133.51130866 55.36438925 140.25344986 53.25 147.0625 C52.91935547 148.15691406 52.58871094 149.25132812 52.24804688 150.37890625 C49.94433294 157.85160597 47.21497413 165.03271408 44.0625 172.1875 C43.76835205 172.85604004 43.4742041 173.52458008 43.17114258 174.21337891 C36.78149234 188.33448585 27.12982323 204.67717702 13.0625 212.1875 C12.4025 212.1875 11.7425 212.1875 11.0625 212.1875 C10.53855324 204.59027195 12.23233065 198.48424787 14.45068359 191.25048828 C15.58018929 187.44189963 16.56446362 183.59473018 17.5625 179.75 C19.98293514 170.42989112 19.98293514 170.42989112 21.1640625 166.2734375 C30.3728628 133.44511889 37.43317947 86.47568317 20.49609375 55.3046875 C13.04828214 44.00336779 3.80777745 37.6682487 -9.39086914 34.62109375 C-16.17524808 33.25244858 -22.71587283 32.87335467 -29.625 32.9375 C-30.66648193 32.94281738 -31.70796387 32.94813477 -32.78100586 32.95361328 C-42.31137071 33.06979241 -51.9770228 33.46606254 -61.18359375 36.125 C-75.96791254 40.30953144 -91.20056093 41.58625455 -106.5 41.625 C-107.81291016 41.6348291 -109.12582031 41.6446582 -110.47851562 41.65478516 C-119.61081693 41.57328893 -126.15516837 40.36489723 -133.875 35.25 C-134.62652344 34.76660156 -135.37804687 34.28320312 -136.15234375 33.78515625 C-138.22870375 31.92688221 -138.39354312 30.84847823 -138.9375 28.1875 C-138.13344727 28.16768066 -137.32939453 28.14786133 -136.50097656 28.12744141 C-98.47313649 27.29832173 -98.47313649 27.29832173 -62.32446289 16.24511719 C-50.58683015 11.04439866 -38.30269146 6.63189087 -25.9375 3.1875 C-25.23955322 2.9922876 -24.54160645 2.7970752 -23.82250977 2.59594727 C-15.86556606 0.48421133 -8.17744808 0.00622806 0 0 Z " fill="#ED1D26" transform="translate(582.9375,426.8125)"/>
<path d="M0 0 C7.04763805 3.29128274 11.01651525 11.18477633 14.921875 17.59765625 C16.26973695 19.80440016 17.66103613 21.98541074 19.1015625 24.1328125 C24.8541065 32.82081105 29.13811937 42.37755257 28 53 C26.23748429 58.59241472 24.22348202 62.99927629 19 66 C13.94645056 68.16810973 8.91564277 69.90096353 3.5 70.875 C-10.15508764 73.6452422 -18.93977115 83.62384845 -26.70703125 94.359375 C-27.23683594 95.08640625 -27.76664062 95.8134375 -28.3125 96.5625 C-29.01826172 97.55443359 -29.01826172 97.55443359 -29.73828125 98.56640625 C-30.15464844 99.03949219 -30.57101562 99.51257813 -31 100 C-31.66 100 -32.32 100 -33 100 C-33.103125 100.59425781 -33.20625 101.18851562 -33.3125 101.80078125 C-34.54834616 105.75408459 -37.53983552 107.90585949 -41 110 C-46.3694905 111.60991656 -50.83698298 111.25054588 -56 109 C-56.103125 109.886875 -56.20625 110.77375 -56.3125 111.6875 C-57.41956377 117.02153455 -59.85981882 120.56211523 -64.12109375 124.01171875 C-67.18196466 125.62169867 -70.31969612 125.52132657 -73.72265625 125.6953125 C-76.22523703 125.84004785 -76.22523703 125.84004785 -78.5625 127.9375 C-80.02571032 129.9309759 -80.02571032 129.9309759 -81 132 C-86.97562742 131.07373768 -91.56131269 128.15296434 -96.75 125.1875 C-98.20599609 124.38602539 -98.20599609 124.38602539 -99.69140625 123.56835938 C-101.07392578 122.78235352 -101.07392578 122.78235352 -102.484375 121.98046875 C-103.32709961 121.50504639 -104.16982422 121.02962402 -105.03808594 120.53979492 C-107 119 -107 119 -107.89550781 116.9855957 C-108 115 -108 115 -106.1875 112.25 C-105.465625 111.5075 -104.74375 110.765 -104 110 C-103.34 110 -102.68 110 -102 110 C-101.8453125 109.0409375 -101.8453125 109.0409375 -101.6875 108.0625 C-101.460625 107.381875 -101.23375 106.70125 -101 106 C-99.515 105.505 -99.515 105.505 -98 105 C-98.00902344 103.80503906 -98.01804687 102.61007812 -98.02734375 101.37890625 C-97.85162965 86.0337455 -97.85162965 86.0337455 -91.88671875 79.62890625 C-90.95279297 78.82259766 -90.95279297 78.82259766 -90 78 C-89.04287109 77.15308594 -89.04287109 77.15308594 -88.06640625 76.2890625 C-85.57930757 74.73756427 -84.15100796 74.68451435 -81.25 74.8125 C-80.45078125 74.83957031 -79.6515625 74.86664063 -78.828125 74.89453125 C-77.92320312 74.94673828 -77.92320312 74.94673828 -77 75 C-77.28875 74.29875 -77.5775 73.5975 -77.875 72.875 C-80.18021178 66.98390324 -81.93247389 62.32010083 -81 56 C-78.87475907 51.34631039 -76.36962905 47.74640417 -72 45 C-69.94176334 44.25947041 -67.85398916 43.59829076 -65.75 43 C-51.70048572 39.19319653 -51.70048572 39.19319653 -41 30 C-40.01 30 -39.02 30 -38 30 C-37.5978125 28.8553125 -37.5978125 28.8553125 -37.1875 27.6875 C-36.04029271 25.09118877 -35.05353332 23.8749652 -33 22 C-32.67 21.34 -32.34 20.68 -32 20 C-31.34 20 -30.68 20 -30 20 C-29.7525 19.28457031 -29.505 18.56914062 -29.25 17.83203125 C-27.86136405 14.68590294 -26.15536054 12.36189037 -24 9.6875 C-22.948125 8.36298828 -22.948125 8.36298828 -21.875 7.01171875 C-21.25625 6.34785156 -20.6375 5.68398438 -20 5 C-19.34 5 -18.68 5 -18 5 C-18 4.34 -18 3.68 -18 3 C-12.4675141 -1.16732704 -6.63839988 -1.06472513 0 0 Z " fill="#FAEE00" transform="translate(478,310)"/>
<path d="M0 0 C7.04763805 3.29128274 11.01651525 11.18477633 14.921875 17.59765625 C16.26973695 19.80440016 17.66103613 21.98541074 19.1015625 24.1328125 C24.8541065 32.82081105 29.13811937 42.37755257 28 53 C26.23748429 58.59241472 24.22348202 62.99927629 19 66 C13.94645056 68.16810973 8.91564277 69.90096353 3.5 70.875 C-10.15508764 73.6452422 -18.93977115 83.62384845 -26.70703125 94.359375 C-27.23683594 95.08640625 -27.76664062 95.8134375 -28.3125 96.5625 C-29.01826172 97.55443359 -29.01826172 97.55443359 -29.73828125 98.56640625 C-30.15464844 99.03949219 -30.57101562 99.51257813 -31 100 C-31.66 100 -32.32 100 -33 100 C-33.103125 100.59425781 -33.20625 101.18851562 -33.3125 101.80078125 C-34.54834616 105.75408459 -37.53983552 107.90585949 -41 110 C-46.3694905 111.60991656 -50.83698298 111.25054588 -56 109 C-56.103125 109.886875 -56.20625 110.77375 -56.3125 111.6875 C-57.41956377 117.02153455 -59.85981882 120.56211523 -64.12109375 124.01171875 C-67.18196466 125.62169867 -70.31969612 125.52132657 -73.72265625 125.6953125 C-76.22523703 125.84004785 -76.22523703 125.84004785 -78.5625 127.9375 C-80.02571032 129.9309759 -80.02571032 129.9309759 -81 132 C-86.97562742 131.07373768 -91.56131269 128.15296434 -96.75 125.1875 C-98.20599609 124.38602539 -98.20599609 124.38602539 -99.69140625 123.56835938 C-101.07392578 122.78235352 -101.07392578 122.78235352 -102.484375 121.98046875 C-103.32709961 121.50504639 -104.16982422 121.02962402 -105.03808594 120.53979492 C-107 119 -107 119 -107.89550781 116.9855957 C-108 115 -108 115 -106.1875 112.25 C-105.465625 111.5075 -104.74375 110.765 -104 110 C-103.34 110 -102.68 110 -102 110 C-101.8453125 109.0409375 -101.8453125 109.0409375 -101.6875 108.0625 C-101.460625 107.381875 -101.23375 106.70125 -101 106 C-99.515 105.505 -99.515 105.505 -98 105 C-98.00902344 103.80503906 -98.01804687 102.61007812 -98.02734375 101.37890625 C-97.85162965 86.0337455 -97.85162965 86.0337455 -91.88671875 79.62890625 C-90.95279297 78.82259766 -90.95279297 78.82259766 -90 78 C-89.04287109 77.15308594 -89.04287109 77.15308594 -88.06640625 76.2890625 C-85.57930757 74.73756427 -84.15100796 74.68451435 -81.25 74.8125 C-80.45078125 74.83957031 -79.6515625 74.86664063 -78.828125 74.89453125 C-77.92320312 74.94673828 -77.92320312 74.94673828 -77 75 C-77.28875 74.29875 -77.5775 73.5975 -77.875 72.875 C-80.18021178 66.98390324 -81.93247389 62.32010083 -81 56 C-78.87475907 51.34631039 -76.36962905 47.74640417 -72 45 C-69.94176334 44.25947041 -67.85398916 43.59829076 -65.75 43 C-51.70048572 39.19319653 -51.70048572 39.19319653 -41 30 C-40.01 30 -39.02 30 -38 30 C-37.5978125 28.8553125 -37.5978125 28.8553125 -37.1875 27.6875 C-36.04029271 25.09118877 -35.05353332 23.8749652 -33 22 C-32.67 21.34 -32.34 20.68 -32 20 C-31.34 20 -30.68 20 -30 20 C-29.7525 19.28457031 -29.505 18.56914062 -29.25 17.83203125 C-27.86136405 14.68590294 -26.15536054 12.36189037 -24 9.6875 C-22.948125 8.36298828 -22.948125 8.36298828 -21.875 7.01171875 C-21.25625 6.34785156 -20.6375 5.68398438 -20 5 C-19.34 5 -18.68 5 -18 5 C-18 4.34 -18 3.68 -18 3 C-12.4675141 -1.16732704 -6.63839988 -1.06472513 0 0 Z M-12.01953125 11.546875 C-12.61121094 12.27390625 -13.20289063 13.0009375 -13.8125 13.75 C-14.82376953 14.97589844 -14.82376953 14.97589844 -15.85546875 16.2265625 C-20.13183208 21.75701417 -24.35563502 27.3336237 -28.4453125 33.00390625 C-37.7256251 44.97939945 -52.32581754 50.10038638 -66.29296875 54.32421875 C-68.22194156 54.95715144 -68.22194156 54.95715144 -70 57 C-70.96323906 64.4651027 -68.93394929 68.84927163 -65.21484375 75.30078125 C-64 78 -64 78 -64.09375 80.12890625 C-65.2305367 82.4759788 -66.64385735 83.86527522 -68.5625 85.625 C-69.74334995 86.71318768 -70.89810336 87.83193202 -72 89 C-72 89.66 -72 90.32 -72 91 C-72.66 91 -73.32 91 -74 91 C-74.28875 90.38125 -74.5775 89.7625 -74.875 89.125 C-75.93720042 86.86674235 -75.93720042 86.86674235 -78 85 C-81.39767634 85.08941254 -82.76491806 85.79033232 -85.3125 88.0625 C-87.47206861 91.82174905 -87.69132506 94.75558566 -87 99 C-86.3739062 100.68232838 -85.7146898 102.35335471 -85 104 C-85.86625 104.92232422 -85.86625 104.92232422 -86.75 105.86328125 C-87.86375 107.07564453 -87.86375 107.07564453 -89 108.3125 C-89.7425 109.11300781 -90.485 109.91351563 -91.25 110.73828125 C-93.30597638 112.91883085 -93.30597638 112.91883085 -93 116 C-90.6887058 117.79767326 -89.04762803 119 -86.0625 119 C-82.93043349 117.4814223 -80.60251876 115.30677799 -78 113 C-77.608125 113.515625 -77.21625 114.03125 -76.8125 114.5625 C-75.06726147 116.2524416 -75.06726147 116.2524416 -72.5625 116 C-69.13142483 114.66104384 -67.93622056 113.11178304 -66 110 C-65.03202162 106.50038585 -64.80550113 104.59646321 -65.9375 101.125 C-66 98 -66 98 -64.359375 95.87890625 C-59.05631625 90.52815813 -59.05631625 90.52815813 -56 89 C-55.7525 89.70125 -55.505 90.4025 -55.25 91.125 C-53.81480595 94.42594632 -52.20212395 97.15019253 -50 100 C-47.93288526 100.70230601 -47.93288526 100.70230601 -46 101 C-41.25807552 95.93975188 -36.7757409 90.84197577 -32.75 85.1875 C-30.07006597 81.42609653 -27.44726106 78.10253495 -24 75 C-23.45214844 74.45988281 -22.90429688 73.91976562 -22.33984375 73.36328125 C-13.6580576 65.14499909 -3.47039661 61.49898307 7.94482422 58.73583984 C11.82853926 57.76765442 14.41950529 57.10183619 17 54 C19.47768368 44.78031992 14.52671382 36.5738097 10.09912109 28.84033203 C7.63419371 24.71313909 4.87076717 20.84960381 2 17 C1.22085691 15.81793557 0.44867014 14.63121701 -0.3125 13.4375 C-1.7701903 10.91455793 -1.7701903 10.91455793 -4 10 C-8.32573358 9.54102515 -8.32573358 9.54102515 -12.01953125 11.546875 Z " fill="#030301" transform="translate(478,310)"/>
<path d="M0 0 C-1.57156665 4.58373608 -4.0265622 8.23289158 -6.75 12.1875 C-9.66525152 16.46693974 -12.47274669 20.72563559 -15 25.25 C-20.67537872 34.83118711 -28.53280224 42.26146432 -38 48 C-39.42892578 48.89332031 -39.42892578 48.89332031 -40.88671875 49.8046875 C-49.25533511 54.69775553 -57.71305673 57.17954134 -67.06982422 59.48291016 C-69.17837144 60.01371703 -69.17837144 60.01371703 -71.84765625 61.07421875 C-90.36051986 66.51108204 -112.59489528 64.25390183 -129.6875 55.9375 C-142.81446513 48.46153327 -151.70458488 37.02981231 -156.3359375 22.796875 C-156.98062655 20.08159643 -157.13178205 17.7775602 -157 15 C-152.19093281 16.34423851 -148.81546249 18.35378859 -144.8125 21.3125 C-134.95275049 28.35357237 -124.73573226 32.05248391 -113 35 C-111.7315625 35.34224609 -111.7315625 35.34224609 -110.4375 35.69140625 C-94.46066504 39.35276426 -77.56222155 37.46817616 -62 33 C-60.7521875 32.66097656 -59.504375 32.32195313 -58.21875 31.97265625 C-40.28209726 26.58782781 -25.08556984 16.36719236 -10.05615234 5.48144531 C-2.44825313 0 -2.44825313 0 0 0 Z " fill="#ED1E27" transform="translate(612,652)"/>
<path d="M0 0 C-2.12786474 5.65095751 -5.17738525 10.63304762 -8.25 15.8125 C-8.81074219 16.77220703 -9.37148438 17.73191406 -9.94921875 18.72070312 C-19.52529492 34.92041628 -30.86427979 44.85465891 -49.39453125 49.9296875 C-68.2814369 54.46254486 -87.51663491 55.47671891 -105 46 C-114.99211008 39.81190376 -122.12017841 31.09114249 -125.3125 19.75 C-125.93832734 16.33639635 -125.96293482 15.13127005 -125 12 C-124.37544922 12.37286133 -123.75089844 12.74572266 -123.10742188 13.12988281 C-120.24000927 14.83950595 -117.37003168 16.54477761 -114.5 18.25 C-113.51773437 18.83652344 -112.53546875 19.42304687 -111.5234375 20.02734375 C-100.19784511 26.74719523 -89.98147582 32.6033271 -76.5 32.4375 C-75.63560303 32.43137695 -74.77120605 32.42525391 -73.88061523 32.41894531 C-65.90757166 32.22909356 -58.5408547 30.7655514 -50.90478516 28.546875 C-49.11785655 28.03383731 -47.31497169 27.57732772 -45.51171875 27.125 C-32.57180668 23.65369425 -22.51805468 15.90562073 -12.2890625 7.61328125 C-2.81183011 0 -2.81183011 0 0 0 Z " fill="#ED1F28" transform="translate(595,703)"/>
<path d="M0 0 C0.99 0.495 0.99 0.495 2 1 C-8.26838707 21.48923532 -20.15628384 36.89937313 -42.4453125 44.875 C-56.04251535 48.28614497 -72.58346491 47.29844036 -84.8046875 40.421875 C-93.82924477 34.47691442 -98.61339494 28.15981519 -102 18 C-102.03954234 15.66700175 -102.04401732 13.33291811 -102 11 C-101.32195312 11.44730469 -100.64390625 11.89460937 -99.9453125 12.35546875 C-86.70470649 20.95636102 -75.15164009 26.59791067 -59.125 26.375 C-58.06361816 26.36412354 -57.00223633 26.35324707 -55.90869141 26.34204102 C-48.57728084 26.19261602 -41.87031542 25.74812617 -35 23 C-33.98292969 22.60554687 -32.96585938 22.21109375 -31.91796875 21.8046875 C-20.03181891 16.5188793 -10.11061333 8.04825661 0 0 Z " fill="#ED2028" transform="translate(585,748)"/>
<path d="M0 0 C0 3 0 3 -1.94140625 5.19921875 C-3.23884766 6.43091797 -3.23884766 6.43091797 -4.5625 7.6875 C-9.80568948 12.77604484 -14.5516853 18.12970615 -19.2890625 23.68359375 C-20.08054687 24.59238281 -20.87203125 25.50117187 -21.6875 26.4375 C-22.41324219 27.28183594 -23.13898437 28.12617187 -23.88671875 28.99609375 C-28.24349972 33.12738513 -33.94283351 32.3301151 -39.671875 32.28515625 C-44.42152421 31.87820274 -47.9256251 30.38499994 -52 28 C-53.5778125 27.13375 -53.5778125 27.13375 -55.1875 26.25 C-62.22564896 20.61948083 -65.54944436 13.5625297 -68 5 C-68 4.34 -68 3.68 -68 3 C-63.39539754 3.64002196 -59.51213734 5.48799376 -55.375 7.5 C-44.70662712 12.62823329 -34.00118332 13.89011004 -22.3125 11.12890625 C-14.53219129 8.22082517 -7.21192411 4.09580633 0 0 Z " fill="#ED222B" transform="translate(567,798)"/>
<path d="M0 0 C0.99 0.33 1.98 0.66 3 1 C1.60543156 5.56530366 -0.24410731 9.63915778 -2.4375 13.875 C-4.96980124 18.82452761 -7.20926967 23.73314608 -9 29 C-9.99 28.67 -10.98 28.34 -12 28 C-10.58709264 19.56862892 -6.16591705 6.16591705 0 0 Z " fill="#131313" transform="translate(361,463)"/>
<path d="M0 0 C0.66 0.33 1.32 0.66 2 1 C0.38722005 11.49510537 -2.35845522 21.72816444 -5 32 C-5.99 32 -6.98 32 -8 32 C-7.35370599 25.75491181 -6.10966416 19.83040024 -4.5625 13.75 C-4.34529297 12.86570312 -4.12808594 11.98140625 -3.90429688 11.0703125 C-3.68966797 10.21695312 -3.47503906 9.36359375 -3.25390625 8.484375 C-3.06127197 7.71834961 -2.8686377 6.95232422 -2.67016602 6.16308594 C-1.98728163 3.95894908 -1.0883278 2.03077643 0 0 Z " fill="#1F1F1F" transform="translate(346,500)"/>
<path d="M0 0 C0.66 0 1.32 0 2 0 C2.19018656 7.47274679 1.4488891 14.65518103 0.5 22.0625 C0.35691406 23.21427734 0.21382813 24.36605469 0.06640625 25.55273438 C-0.28418352 28.36913886 -0.63975872 31.18481659 -1 34 C-1.66 34 -2.32 34 -3 34 C-3.22331286 26.17164364 -2.99030075 18.58178647 -2.0625 10.8125 C-1.97564941 10.08232666 -1.88879883 9.35215332 -1.79931641 8.59985352 C-1.41819675 5.59844817 -0.95934992 2.87804976 0 0 Z " fill="#2B2B2B" transform="translate(336,541)"/>
<path d="M0 0 C0.66 0.33 1.32 0.66 2 1 C1.50899352 5.71193942 -0.43513267 8.22407057 -3.4375 11.8125 C-4.24058594 12.78832031 -5.04367187 13.76414062 -5.87109375 14.76953125 C-6.92490234 15.87361328 -6.92490234 15.87361328 -8 17 C-8.66 17 -9.32 17 -10 17 C-9.51814387 12.2778099 -7.30336567 9.29945628 -4.4375 5.6875 C-4.01275391 5.13771484 -3.58800781 4.58792969 -3.15039062 4.02148438 C-2.10818741 2.6748173 -1.05516157 1.33653799 0 0 Z " fill="#181818" transform="translate(377,440)"/>
<path d="M0 0 C0.33 0 0.66 0 1 0 C0.03644647 10.55808656 0.03644647 10.55808656 -1 15 C-1.99 15 -2.98 15 -4 15 C-3.50341703 9.33895411 -2.45489316 5.12325529 0 0 Z " fill="#080808" transform="translate(342,517)"/>
<path d="M0 0 C2 2 2 2 2.125 5.125 C2.08375 6.07375 2.0425 7.0225 2 8 C1.01 8 0.02 8 -1 8 C-0.67 5.36 -0.34 2.72 0 0 Z " fill="#2A2A2A" transform="translate(339,524)"/>
</svg>
